# xmcd CD database file
#
# Track frame offsets:
#	150
#	23267
#	40642
#	66416
#	93662
#	110753
#	124827
#	135982
#	158498
#	188022
#	199853
#	211610
#	235236
#	246776
#	268972
#
# Disc length: 3719 seconds
#
# Revision: 0
# Processed by: cddbd v1.5.1PL2 Copyright (c) Steve Scherf et al.
# Submitted via: CDex 1.51
#
DISCID=c80e850f
DTITLE=Various Artist - Habana Salsa Tropical - The Greatest Cuban Nightclub Orchestras
DYEAR=1900
DGENRE=Salsa
TTITLE0=Juan Carlos Alfonso Y Su Dan Len - La Chica De Nieve
TTITLE1=Ibrahim Ferrer - La Chica Del Granizado
TTITLE2=Felix Baloy - Hay Madresita
TTITLE3=Candido Fabré - La Habana Querere Guarachar Contigo
TTITLE4=David Alvarez Y Juego De Manos - Cuidoa, Cuidao
TTITLE5=El Piquetón De Felix Rondón - Misercordia, Que Es Esto
TTITLE6=Omara Portuondo - Si Te Contara
TTITLE7=Isaac Delgado Y Su Grupo - Ella Es Ub Reloj
TTITLE8=Son 14 With Tiburon - Cubanía
TTITLE9=Felix Baloy - Ten Un Poquito De Fé
TTITLE10=Manuel Puntilita Licea - Cantinero Mi Cerveza
TTITLE11=Son 14 - Desenganado
TTITLE12=Pio Leyva Y Omara Portuondo - Bajo Un Palmar
TTITLE13=Felix Baloy - Lo Otro Lo Pomgo Yo
TTITLE14=Manuel Puntilita Licea - Escucha Nena
EXTD=
EXTT0=
EXTT1=
EXTT2=
EXTT3=
EXTT4=
EXTT5=
EXTT6=
EXTT7=
EXTT8=
EXTT9=
EXTT10=
EXTT11=
EXTT12=
EXTT13=
EXTT14=
PLAYORDER=
